<svg xmlns="http://www.w3.org/2000/svg" width="29.967" height="29.966" viewBox="0 0 29.967 29.966">
  <g id="Group_5165" data-name="Group 5165" transform="translate(0 0)">
    <g id="Group_5164" data-name="Group 5164">
      <g id="Group_5162" data-name="Group 5162">
        <path id="Path_34292" data-name="Path 34292" d="M-181.758,677.864a15,15,0,0,0-14.983,14.983,14.865,14.865,0,0,0,2.393,8.12l-2.276,5.014a1.307,1.307,0,0,0,.2,1.39,1.308,1.308,0,0,0,1,.459,1.3,1.3,0,0,0,.346-.047l6.271-1.721a14.981,14.981,0,0,0,7.057,1.767,15,15,0,0,0,14.983-14.984A15,15,0,0,0-181.758,677.864Zm0,27.349a12.356,12.356,0,0,1-6.227-1.684,1.306,1.306,0,0,0-.66-.179,1.317,1.317,0,0,0-.346.046l-4.1,1.124,1.427-3.144a1.309,1.309,0,0,0-.131-1.307,12.274,12.274,0,0,1-2.333-7.225,12.38,12.38,0,0,1,12.366-12.366,12.38,12.38,0,0,1,12.367,12.366A12.381,12.381,0,0,1-181.758,705.213Z" transform="translate(196.741 -677.864)" fill="#45c022"/>
      </g>
      <text id="B" transform="translate(8.756 21.828)" fill="#45c022" font-size="20" font-family="Avenir-Heavy, Avenir" font-weight="800"><tspan x="0" y="0">B</tspan></text>
    </g>
  </g>
</svg>
