<svg xmlns="http://www.w3.org/2000/svg" width="11.556" height="22.886" viewBox="0 0 11.556 22.886">
  <path id="Path_34257" data-name="Path 34257" d="M970.092,506.449h0a.89.89,0,0,0-.853.855v10.9a4.121,4.121,0,0,1-3.617,4.155c-.136.014-.27.02-.4.02a3.984,3.984,0,0,1-3.976-3.6,3.736,3.736,0,0,1-.021-.4V505.649a2.562,2.562,0,0,1,2.208-2.6,2.52,2.52,0,0,1,.259-.013,2.455,2.455,0,0,1,2.446,2.206,2.279,2.279,0,0,1,.013.262v10.812a.921.921,0,0,1-.947.887h0a.922.922,0,0,1-.888-.883V507.3a.886.886,0,0,0-.916-.851h0a.888.888,0,0,0-.852.855v8.865a2.786,2.786,0,0,0,2.4,2.824A2.687,2.687,0,0,0,967.9,516.6c.009-.093.013-.188.013-.282V505.678a4.345,4.345,0,0,0-3.818-4.384c-.139-.013-.279-.02-.416-.02a4.213,4.213,0,0,0-4.207,3.821c-.012.135-.018.27-.019.406v12.636a5.933,5.933,0,0,0,5.211,6c.191.019.382.028.57.028a5.759,5.759,0,0,0,5.748-5.221c.018-.187.027-.375.027-.564V507.3A.887.887,0,0,0,970.092,506.449Z" transform="translate(-959.452 -501.274)" fill="#2198fa"/>
</svg>
