<svg xmlns="http://www.w3.org/2000/svg" width="29.967" height="29.966" viewBox="0 0 29.967 29.966">
  <g id="Group_4965" data-name="Group 4965" transform="translate(0 0)">
    <g id="Group_4716" data-name="Group 4716">
      <g id="Group_4714" data-name="Group 4714">
        <path id="Path_33866" data-name="Path 33866" d="M-181.758,677.864a15,15,0,0,0-14.983,14.983,14.865,14.865,0,0,0,2.393,8.12l-2.276,5.014a1.307,1.307,0,0,0,.2,1.39,1.308,1.308,0,0,0,1,.459,1.3,1.3,0,0,0,.346-.047l6.271-1.721a14.981,14.981,0,0,0,7.057,1.767,15,15,0,0,0,14.983-14.984A15,15,0,0,0-181.758,677.864Zm0,27.349a12.356,12.356,0,0,1-6.227-1.684,1.306,1.306,0,0,0-.66-.179,1.317,1.317,0,0,0-.346.046l-4.1,1.124,1.427-3.144a1.309,1.309,0,0,0-.131-1.307,12.274,12.274,0,0,1-2.333-7.225,12.38,12.38,0,0,1,12.366-12.366,12.38,12.38,0,0,1,12.367,12.366A12.381,12.381,0,0,1-181.758,705.213Z" transform="translate(196.741 -677.864)" fill="#45c022"/>
      </g>
      <g id="Group_4715" data-name="Group 4715" transform="translate(9.169 9.49)">
        <path id="Path_33867" data-name="Path 33867" d="M-168.493,703.941a2.061,2.061,0,0,0-1.757-.4c-.456.187-.748.9-1.043,1.266a.438.438,0,0,1-.566.123,7.957,7.957,0,0,1-3.971-3.4.487.487,0,0,1,.061-.665,2.683,2.683,0,0,0,.721-1.171,2.563,2.563,0,0,0-.322-1.386,3.286,3.286,0,0,0-1.023-1.542,1.4,1.4,0,0,0-1.523.226,3.09,3.09,0,0,0-1.072,2.449,3.474,3.474,0,0,0,.1.777,6.425,6.425,0,0,0,.746,1.719,13.547,13.547,0,0,0,.778,1.183,12.009,12.009,0,0,0,3.376,3.134,10.206,10.206,0,0,0,2.105,1,4.676,4.676,0,0,0,2.451.387,2.966,2.966,0,0,0,2.222-1.653,1.436,1.436,0,0,0,.1-.843C-167.236,704.568-168.023,704.222-168.493,703.941Z" transform="translate(178.987 -696.631)" fill="#45c022"/>
      </g>
    </g>
  </g>
</svg>
