<svg id="Group_5167" data-name="Group 5167" xmlns="http://www.w3.org/2000/svg" width="31.564" height="27.615" viewBox="0 0 31.564 27.615">
  <g id="Group_4688" data-name="Group 4688">
    <g id="Group_4687" data-name="Group 4687">
      <path id="Path_33840" data-name="Path 33840" d="M-387.2,705.667a8.353,8.353,0,0,1-.087-1.2c0-5.081,4.57-9.228,10.246-9.366-.415-5.1-5.117-9.12-10.86-9.12-6.016,0-10.894,4.412-10.894,9.853a9.521,9.521,0,0,0,4.1,7.7l-.009,0a1.541,1.541,0,0,1,.519,1.582c-.211,1.08-.613,2.505-.613,2.505l2.793-1.759a2.9,2.9,0,0,1,1.815-.392c.148.029.3.054.45.077l.043.009-.009,0a12.044,12.044,0,0,0,1.8.137C-387.663,705.69-387.43,705.681-387.2,705.667Z" transform="translate(398.793 -685.983)" fill="#36b921"/>
    </g>
    <path id="Path_33841" data-name="Path 33841" d="M-384.849,699.923a1.283,1.283,0,0,1-1.27,1.3,1.283,1.283,0,0,1-1.269-1.3,1.282,1.282,0,0,1,1.269-1.3A1.283,1.283,0,0,1-384.849,699.923Z" transform="translate(393.227 -692.02)" fill="#fff"/>
    <path id="Path_33842" data-name="Path 33842" d="M-368.767,699.923a1.283,1.283,0,0,1-1.269,1.3,1.283,1.283,0,0,1-1.269-1.3,1.282,1.282,0,0,1,1.269-1.3A1.282,1.282,0,0,1-368.767,699.923Z" transform="translate(385.378 -692.02)" fill="#fff"/>
  </g>
  <g id="Group_4689" data-name="Group 4689" transform="translate(12.524 10.15)">
    <path id="Path_33843" data-name="Path 33843" d="M-361.521,721.7a3.343,3.343,0,0,1,1.648.376l1.283.778a.051.051,0,0,0,.028.015c.035,0,.053-.116-.309-.994a1.748,1.748,0,0,1,.493-1.988h0a7.888,7.888,0,0,0,3.091-6.147c0-4.6-4.262-8.336-9.52-8.336s-9.52,3.732-9.52,8.336,4.262,8.336,9.52,8.336a10.768,10.768,0,0,0,2.688-.339l-.009,0A4.542,4.542,0,0,1-361.521,721.7Z" transform="translate(374.33 -705.405)" fill="#36b921"/>
    <path id="Path_33844" data-name="Path 33844" d="M-352.853,715.866a1.09,1.09,0,0,0,1.078,1.1,1.089,1.089,0,0,0,1.077-1.1,1.088,1.088,0,0,0-1.077-1.1A1.089,1.089,0,0,0-352.853,715.866Z" transform="translate(363.848 -709.874)" fill="#fff"/>
    <path id="Path_33845" data-name="Path 33845" d="M-365.974,715.866a1.089,1.089,0,0,0,1.077,1.1,1.089,1.089,0,0,0,1.078-1.1,1.089,1.089,0,0,0-1.078-1.1A1.089,1.089,0,0,0-365.974,715.866Z" transform="translate(370.252 -709.874)" fill="#fff"/>
  </g>
</svg>
