<svg id="icon_email" data-name="icon/email" xmlns="http://www.w3.org/2000/svg" width="22.582" height="24.319" viewBox="0 0 22.582 24.319">
  <path id="Combined_Shape" data-name="Combined Shape" d="M2.606,24.319A2.609,2.609,0,0,1,0,21.713V9.554A2.61,2.61,0,0,1,2.606,6.948h2.6v-2.6A4.348,4.348,0,0,1,9.554,0h3.474a4.348,4.348,0,0,1,4.343,4.343v2.6h2.606a2.608,2.608,0,0,1,2.6,2.606V21.713a2.607,2.607,0,0,1-2.6,2.606ZM1.737,9.554V21.713a.869.869,0,0,0,.869.869H19.978a.869.869,0,0,0,.868-.869V9.554a.87.87,0,0,0-.868-.869H17.371v0H5.211v0h-2.6A.87.87,0,0,0,1.737,9.554Zm13.9-2.606v-2.6A2.594,2.594,0,0,0,13.28,1.749l-.252-.013H9.554A2.61,2.61,0,0,0,6.948,4.343v2.6Zm-5.2,10.58-.014-.156V13.028a.869.869,0,0,1,1.723-.156l.014.156v4.343a.868.868,0,0,1-1.723.156Z" fill="#444"/>
</svg>
