<svg xmlns="http://www.w3.org/2000/svg" xmlns:xlink="http://www.w3.org/1999/xlink" width="34" height="34" viewBox="0 0 34 34">
  <defs>
    <clipPath id="clip-path">
      <rect id="Background" width="16" height="16" fill="none"/>
    </clipPath>
  </defs>
  <g id="Group_4954" data-name="Group 4954" transform="translate(-0.304 -0.118)">
    <rect id="Rectangle_4097" data-name="Rectangle 4097" width="34" height="34" rx="10" transform="translate(0.304 0.118)" fill="#d0e9ff"/>
    <g id="search" transform="translate(9.304 9.118)">
      <rect id="Background-2" data-name="Background" width="16" height="16" fill="none"/>
      <g id="search-2" data-name="search" clip-path="url(#clip-path)">
        <g id="Refresh" transform="translate(1.188 1.275)">
          <path id="Path_34094" data-name="Path 34094" d="M5.4,1.459,2.723,1.2A.655.655,0,1,0,2.6,2.5l.778.077a6.87,6.87,0,0,0-.6.529,6.791,6.791,0,0,0,0,9.6,6.679,6.679,0,0,0,2.073,1.416.655.655,0,1,0,.521-1.2A5.38,5.38,0,0,1,3.7,11.781a5.486,5.486,0,0,1,.781-8.4L4.331,4.414a.655.655,0,0,0,.55.743.665.665,0,0,0,.1.007.655.655,0,0,0,.647-.559l.357-2.4A.655.655,0,0,0,5.4,1.459Z" transform="translate(-0.789 -1.192)" fill="#2198fa"/>
          <path id="Path_34095" data-name="Path 34095" d="M42.791,15l-.778-.077a6.871,6.871,0,0,0,.6-.529,6.8,6.8,0,0,0,0-9.6,6.683,6.683,0,0,0-2.073-1.415.655.655,0,1,0-.521,1.2,5.383,5.383,0,0,1,1.668,1.141,5.485,5.485,0,0,1-.78,8.4l.153-1.033a.655.655,0,1,0-1.3-.193l-.357,2.4a.655.655,0,0,0,.583.748l2.676.265q.033,0,.065,0A.655.655,0,0,0,42.792,15Z" transform="translate(-30.971 -2.854)" fill="#2198fa"/>
        </g>
      </g>
    </g>
  </g>
</svg>
