<svg id="icon_email" data-name="icon/email" xmlns="http://www.w3.org/2000/svg" width="34.743" height="34.743" viewBox="0 0 34.743 34.743">
  <path id="Combined_Shape" data-name="Combined Shape" d="M2.6,19A2.6,2.6,0,0,1,0,16.41V2.591A2.59,2.59,0,0,1,1.185.419L1.37.16l.123.087A2.592,2.592,0,0,1,2.6,0H23.4a2.591,2.591,0,0,1,1.107.247L24.629.16l.184.257A2.59,2.59,0,0,1,26,2.591V16.41A2.6,2.6,0,0,1,23.4,19ZM1.733,2.591V16.41a.866.866,0,0,0,.867.863H23.4a.866.866,0,0,0,.867-.863V2.591c0-.016,0-.033,0-.049L13.5,10.2a.871.871,0,0,1-.872.079L12.5,10.2,1.735,2.543C1.734,2.559,1.733,2.575,1.733,2.591ZM13,8.44l9.429-6.713H3.571Z" transform="translate(4.491 8.074)" fill="#aaa"/>
</svg>
