<svg id="Group_6158" data-name="Group 6158" xmlns="http://www.w3.org/2000/svg" width="30" height="30" viewBox="0 0 30 30">
  <g id="Group_4716" data-name="Group 4716" transform="translate(0)">
    <g id="Group_4714" data-name="Group 4714">
      <path id="Path_33866" data-name="Path 33866" d="M-181.741,677.864a15.016,15.016,0,0,0-15,15,14.882,14.882,0,0,0,2.4,8.13l-2.279,5.019a1.309,1.309,0,0,0,.2,1.392,1.31,1.31,0,0,0,1,.46,1.308,1.308,0,0,0,.346-.047l6.278-1.723a15,15,0,0,0,7.065,1.769,15.017,15.017,0,0,0,15-15A15.017,15.017,0,0,0-181.741,677.864Zm0,27.38a12.369,12.369,0,0,1-6.234-1.685,1.308,1.308,0,0,0-.66-.179,1.328,1.328,0,0,0-.347.046l-4.1,1.126,1.429-3.147a1.31,1.31,0,0,0-.131-1.308,12.287,12.287,0,0,1-2.336-7.233,12.394,12.394,0,0,1,12.38-12.38,12.394,12.394,0,0,1,12.38,12.38A12.4,12.4,0,0,1-181.741,705.244Z" transform="translate(196.741 -677.864)" fill="#45c022"/>
    </g>
    <g id="Group_4715" data-name="Group 4715" transform="translate(7.71 8.15)">
      <path id="Path_33867" data-name="Path 33867" d="M-165.93,705.727a2.565,2.565,0,0,0-2.186-.493c-.568.233-.93,1.121-1.3,1.575a.545.545,0,0,1-.7.153,9.9,9.9,0,0,1-4.94-4.232.606.606,0,0,1,.076-.828,3.337,3.337,0,0,0,.9-1.457,3.188,3.188,0,0,0-.4-1.724,4.088,4.088,0,0,0-1.273-1.919,1.744,1.744,0,0,0-1.895.282,3.845,3.845,0,0,0-1.333,3.047,4.324,4.324,0,0,0,.12.967,8,8,0,0,0,.928,2.138,16.838,16.838,0,0,0,.968,1.473,14.943,14.943,0,0,0,4.2,3.9,12.692,12.692,0,0,0,2.619,1.246,5.82,5.82,0,0,0,3.049.482,3.69,3.69,0,0,0,2.765-2.057,1.786,1.786,0,0,0,.128-1.049C-164.367,706.506-165.345,706.076-165.93,705.727Z" transform="translate(178.987 -696.631)" fill="#45c022"/>
    </g>
  </g>
</svg>
