<svg id="align-center-alt" xmlns="http://www.w3.org/2000/svg" xmlns:xlink="http://www.w3.org/1999/xlink" width="18" height="18" viewBox="0 0 18 18">
  <defs>
    <clipPath id="clip-path">
      <rect id="Background" width="18" height="18" fill="none"/>
    </clipPath>
  </defs>
  <rect id="Background-2" data-name="Background" width="18" height="18" fill="none"/>
  <g id="align-center-alt-2" data-name="align-center-alt" clip-path="url(#clip-path)">
    <path id="Shape" d="M9.163,9H.751a.75.75,0,1,1,0-1.5H9.163a.75.75,0,0,1,0,1.5Zm2.159-3.75H.75a.75.75,0,0,1,0-1.5H11.322a.75.75,0,1,1,0,1.5ZM14.278,1.5H.751a.75.75,0,1,1,0-1.5H14.278a.75.75,0,0,1,0,1.5Z" transform="translate(1.5 4.5)" fill="#2198fa"/>
  </g>
</svg>
