<svg xmlns="http://www.w3.org/2000/svg" width="21.972" height="20.44" viewBox="0 0 21.972 20.44">
  <g id="Group_5007" data-name="Group 5007" transform="translate(-5.159 -5.115)">
    <path id="Path_34258" data-name="Path 34258" d="M7.859,10.3a10.1,10.1,0,0,0-.621,8.56L5.3,23.552c-.3.712-.18,1.087.849,1.081l5.833-.4.045.027a10.142,10.142,0,0,0,9.918-17.7l-.284-.159A10.153,10.153,0,0,0,7.859,10.3Zm.847,8.982a.831.831,0,0,0,.038-.655A8.648,8.648,0,0,1,20.939,7.706l.284.159a8.654,8.654,0,1,1-8.462,15.1l-.284-.16a.978.978,0,0,0-.593-.085h-4.4Z" fill="#8b8b8b"/>
    <path id="Path_34259" data-name="Path 34259" d="M21.028,15.3,14.7,21.632a.318.318,0,0,1-.343.129.268.268,0,0,1-.21-.214.459.459,0,0,1,0-.2c.471-1.6,1.6-5.41,1.6-5.41H13.069a.318.318,0,0,1-.334-.185.307.307,0,0,1,.107-.355l6.319-6.358a.314.314,0,0,1,.334-.128.263.263,0,0,1,.2.218.459.459,0,0,1,0,.2c-.381,1.285-1.6,5.41-1.6,5.41h2.728a.314.314,0,0,1,.335.189A.308.308,0,0,1,21.028,15.3Z" transform="translate(0 0)" fill="#8b8b8b"/>
  </g>
</svg>
