<svg xmlns="http://www.w3.org/2000/svg" width="20.229" height="20.173" viewBox="0 0 20.229 20.173">
  <g id="Group_4613" data-name="Group 4613" transform="translate(-875.887 -501.312)">
    <path id="Path_34046" data-name="Path 34046" d="M879.021,517.538a.828.828,0,0,0,.181-1.156l0,0a8.43,8.43,0,1,1,13.6,0,.828.828,0,0,0,1.335.981,10.086,10.086,0,1,0-16.272,0,.828.828,0,0,0,1.156.179h0Z" fill="#8b8b8b"/>
    <path id="Path_34047" data-name="Path 34047" d="M895.256,519.828H876.744a.829.829,0,0,0-.058,1.657.541.541,0,0,0,.058,0h18.513a.829.829,0,0,0,.059-1.657h-.06Z" fill="#8b8b8b"/>
    <path id="Path_34048" data-name="Path 34048" d="M885.1,508.395a1.278,1.278,0,0,1,2.178.9.829.829,0,0,0,1.657,0,2.939,2.939,0,0,0-2.1-2.812v-.554a.829.829,0,1,0-1.657-.058v.612a2.832,2.832,0,0,0-.3,5.344l1.634.677a1.17,1.17,0,0,1,.434,1.868,1.279,1.279,0,0,1-2.211-.869.828.828,0,0,0-1.655,0,2.933,2.933,0,0,0,2.1,2.812v.555a.829.829,0,0,0,1.657,0v-.555a2.9,2.9,0,0,0,1.234-.728,2.828,2.828,0,0,0-.929-4.614l-1.632-.677a1.171,1.171,0,0,1-.642-1.528,1.159,1.159,0,0,1,.242-.372Z" fill="#8b8b8b"/>
  </g>
</svg>
