<svg xmlns="http://www.w3.org/2000/svg" width="10.872" height="19.196" viewBox="0 0 10.872 19.196">
  <g id="Group_5008" data-name="Group 5008" transform="translate(-908.79 -500.432)">
    <path id="Path_34261" data-name="Path 34261" d="M918.964,509.39a.714.714,0,0,0-.7.7v1.023a4.042,4.042,0,1,1-8.084,0v-1.023a.7.7,0,0,0-1.394,0v1.023a5.427,5.427,0,0,0,4.739,5.389v3.3a.7.7,0,1,0,1.394,0v-3.3a5.428,5.428,0,0,0,4.739-5.389v-1.023A.715.715,0,0,0,918.964,509.39Z" transform="translate(0 -0.866)" fill="#8b8b8b"/>
    <path id="Path_34262" data-name="Path 34262" d="M914.431,513.678a3.491,3.491,0,0,0,3.463-3.51v-6.225a3.487,3.487,0,1,0-6.974,0v6.225A3.515,3.515,0,0,0,914.431,513.678Zm-2.065-9.735a2.067,2.067,0,0,1,2.065-2.065,2.045,2.045,0,0,1,2.019,2.065v6.225a2.045,2.045,0,0,1-2.019,2.065,2.067,2.067,0,0,1-2.065-2.065Z" transform="translate(-0.206)" fill="#8b8b8b"/>
  </g>
</svg>
