<svg xmlns="http://www.w3.org/2000/svg" width="19.599" height="19.599" viewBox="0 0 19.599 19.599">
  <g id="Group_5006" data-name="Group 5006" transform="translate(-930.983 -501.513)">
    <circle id="Ellipse_1503" data-name="Ellipse 1503" cx="1.5" cy="1.5" r="1.5" transform="translate(942.783 507.313)" fill="#8b8b8b"/>
    <circle id="Ellipse_1504" data-name="Ellipse 1504" cx="1.5" cy="1.5" r="1.5" transform="translate(935.783 507.313)" fill="#8b8b8b"/>
    <path id="Path_34255" data-name="Path 34255" d="M940.791,516.813a5.445,5.445,0,0,1-4.659-2.59.788.788,0,0,1-.094-.6.731.731,0,0,1,.34-.453.744.744,0,0,1,.38-.106.754.754,0,0,1,.645.368,4.014,4.014,0,0,0,1.268,1.273,3.984,3.984,0,0,0,5.491-1.263.748.748,0,1,1,1.271.79,5.52,5.52,0,0,1-1.762,1.758A5.459,5.459,0,0,1,940.791,516.813Z" fill="#8b8b8b"/>
    <path id="Path_34256" data-name="Path 34256" d="M940.773,501.513a9.8,9.8,0,0,0,.009,19.6h.01a9.8,9.8,0,0,0-.019-19.6Zm.01,18a8.2,8.2,0,1,1,8.2-8.2A8.21,8.21,0,0,1,940.783,519.513Z" fill="#8b8b8b"/>
  </g>
</svg>
