<svg xmlns="http://www.w3.org/2000/svg" width="34" height="34" viewBox="0 0 34 34">
  <g id="Group_4955" data-name="Group 4955" transform="translate(-3244 -1162)">
    <rect id="Rectangle_4046" data-name="Rectangle 4046" width="34" height="34" rx="10" transform="translate(3244 1162)" fill="#2198fa"/>
    <g id="noun_send_3677734" transform="translate(3251.925 1171.854)">
      <path id="Path_34191" data-name="Path 34191" d="M1.947,7.853a.608.608,0,0,0,.416.577l7.661,2.554,2.553,7.66a.609.609,0,0,0,1.155,0l5.3-15.9a.607.607,0,0,0,.029-.182c0-.014,0-.027,0-.04a.609.609,0,0,0-.033-.167A.538.538,0,0,0,19,2.3a.543.543,0,0,0-.3-.3c-.018-.008-.036-.015-.054-.021a.608.608,0,0,0-.168-.033c-.013,0-.026,0-.039,0a.6.6,0,0,0-.183.03l-15.9,5.3a.608.608,0,0,0-.416.577Z" transform="translate(-1.947 -1.947)" fill="#fff"/>
    </g>
  </g>
</svg>
