<svg xmlns="http://www.w3.org/2000/svg" width="10.284" height="20.367" viewBox="0 0 10.284 20.367">
  <path id="Path_34257" data-name="Path 34257" d="M968.921,505.879h0a.792.792,0,0,0-.759.761v9.7a3.668,3.668,0,0,1-3.219,3.7c-.121.012-.24.018-.358.018a3.545,3.545,0,0,1-3.538-3.208,3.306,3.306,0,0,1-.019-.359V505.167a2.28,2.28,0,0,1,1.965-2.31,2.23,2.23,0,0,1,.23-.012,2.185,2.185,0,0,1,2.177,1.963,2.015,2.015,0,0,1,.012.233v9.622a.82.82,0,0,1-.843.789h0a.821.821,0,0,1-.79-.786v-8.03a.789.789,0,0,0-.815-.757h0a.79.79,0,0,0-.758.761v7.889a2.479,2.479,0,0,0,2.139,2.513,2.392,2.392,0,0,0,2.628-2.131c.008-.083.012-.167.012-.251v-9.467a3.867,3.867,0,0,0-3.4-3.9c-.124-.012-.248-.018-.37-.018a3.749,3.749,0,0,0-3.744,3.4c-.011.12-.016.24-.017.361V516.28a5.28,5.28,0,0,0,4.637,5.336c.17.017.34.025.507.025a5.125,5.125,0,0,0,5.115-4.646c.016-.166.024-.334.024-.5v-9.857A.789.789,0,0,0,968.921,505.879Z" transform="translate(-959.452 -501.274)" fill="#8b8b8b"/>
</svg>
