<svg id="MS_logo-square" xmlns="http://www.w3.org/2000/svg" xmlns:xlink="http://www.w3.org/1999/xlink" width="78.748" height="49.672" viewBox="0 0 78.748 49.672">
  <defs>
    <linearGradient id="linear-gradient" x1="0.852" y1="0.056" x2="0.579" y2="0.4" gradientUnits="objectBoundingBox">
      <stop offset="0" stop-color="#48ceff"/>
      <stop offset="1" stop-color="#3f94ff"/>
    </linearGradient>
    <linearGradient id="linear-gradient-2" x1="0.863" y1="0.219" x2="0.438" y2="0.549" gradientUnits="objectBoundingBox">
      <stop offset="0" stop-color="#48ceff"/>
      <stop offset="0.641" stop-color="#41a5ff"/>
      <stop offset="1" stop-color="#3f94ff"/>
    </linearGradient>
    <linearGradient id="linear-gradient-3" x1="0.22" y1="0.886" x2="1.292" y2="-0.591" gradientUnits="objectBoundingBox">
      <stop offset="0" stop-color="#48ceff"/>
      <stop offset="0.048" stop-color="#46c2ff"/>
      <stop offset="0.16" stop-color="#43aeff"/>
      <stop offset="0.287" stop-color="#409fff"/>
      <stop offset="0.437" stop-color="#3f96ff"/>
      <stop offset="0.672" stop-color="#3f94ff"/>
    </linearGradient>
  </defs>
  <g id="Group_6230" data-name="Group 6230" transform="translate(-793.872 -430.89)">
    <g id="Group_6228" data-name="Group 6228" transform="translate(793.878 430.89)">
      <path id="Path_34652" data-name="Path 34652" d="M864.131,480.562a7.871,7.871,0,0,1-7.862-7.861V456.522a9.066,9.066,0,0,0-9.055-9.056l-45.508-.22a7.862,7.862,0,0,1-7.824-7.907l0-.632a7.881,7.881,0,0,1,7.861-7.818l45.5.22a25.444,25.444,0,0,1,25.381,25.412V472.7a7.87,7.87,0,0,1-7.861,7.861Z" transform="translate(-793.882 -430.89)" fill="url(#linear-gradient)"/>
    </g>
    <g id="Group_6229" data-name="Group 6229" transform="translate(793.944 430.929)">
      <path id="Path_34653" data-name="Path 34653" d="M831.209,480.593a7.87,7.87,0,0,1-7.862-7.861V456.553a9.066,9.066,0,0,0-9.056-9.056l-12.519-.182A7.863,7.863,0,0,1,794,439.282l.014-.633a7.9,7.9,0,0,1,7.858-7.69l12.512.182A25.452,25.452,0,0,1,839.7,456.553v16.178a7.87,7.87,0,0,1-7.862,7.861Z" transform="translate(-794.001 -430.959)" fill="url(#linear-gradient-2)"/>
    </g>
    <ellipse id="Ellipse_1655" data-name="Ellipse 1655" cx="8.526" cy="8.668" rx="8.526" ry="8.668" transform="translate(793.872 463.226)" fill="url(#linear-gradient-3)"/>
  </g>
</svg>
