<svg id="MS_logo-square" xmlns="http://www.w3.org/2000/svg" xmlns:xlink="http://www.w3.org/1999/xlink" width="88.263" height="78.47" viewBox="0 0 88.263 78.47">
  <defs>
    <linearGradient id="linear-gradient" x1="0.852" y1="0.056" x2="0.579" y2="0.4" gradientUnits="objectBoundingBox">
      <stop offset="0" stop-color="#48ceff"/>
      <stop offset="1" stop-color="#3f94ff"/>
    </linearGradient>
    <linearGradient id="linear-gradient-2" x1="0.863" y1="0.219" x2="0.438" y2="0.549" gradientUnits="objectBoundingBox">
      <stop offset="0" stop-color="#48ceff"/>
      <stop offset="0.641" stop-color="#41a5ff"/>
      <stop offset="1" stop-color="#3f94ff"/>
    </linearGradient>
    <linearGradient id="linear-gradient-3" x1="0.22" y1="0.886" x2="1.292" y2="-0.591" gradientUnits="objectBoundingBox">
      <stop offset="0" stop-color="#48ceff"/>
      <stop offset="0.048" stop-color="#46c2ff"/>
      <stop offset="0.16" stop-color="#43aeff"/>
      <stop offset="0.287" stop-color="#409fff"/>
      <stop offset="0.437" stop-color="#3f96ff"/>
      <stop offset="0.672" stop-color="#3f94ff"/>
    </linearGradient>
  </defs>
  <g id="Group_6230" data-name="Group 6230" transform="translate(0.001 0.001)">
    <g id="Group_6228" data-name="Group 6228" transform="translate(0.006)">
      <path id="Path_34652" data-name="Path 34652" d="M872.618,486.563a8.821,8.821,0,0,1-8.811-8.811V459.619a10.161,10.161,0,0,0-10.149-10.15l-51.005-.247a8.811,8.811,0,0,1-8.77-8.862l0-.708a8.832,8.832,0,0,1,8.811-8.762l50.994.247a28.518,28.518,0,0,1,28.447,28.482v18.133a8.821,8.821,0,0,1-8.811,8.811Z" transform="translate(-793.882 -430.89)" fill="url(#linear-gradient)"/>
    </g>
    <g id="Group_6229" data-name="Group 6229" transform="translate(0.081 0.043)">
      <path id="Path_34653" data-name="Path 34653" d="M835.7,486.588a8.821,8.821,0,0,1-8.811-8.811V459.644a10.161,10.161,0,0,0-10.15-10.15l-14.032-.2a8.813,8.813,0,0,1-8.708-9l.016-.709a8.859,8.859,0,0,1,8.807-8.619l14.024.2a28.527,28.527,0,0,1,28.375,28.482v18.133a8.821,8.821,0,0,1-8.811,8.811Z" transform="translate(-794.001 -430.959)" fill="url(#linear-gradient-2)"/>
    </g>
    <ellipse id="Ellipse_1655" data-name="Ellipse 1655" cx="9.556" cy="9.716" rx="9.556" ry="9.716" transform="translate(0 36.242)" fill="url(#linear-gradient-3)"/>
  </g>
  <g id="Group_6224" data-name="Group 6224" transform="translate(-793.872 -430.89)">
    <g id="Group_6226" data-name="Group 6226" transform="translate(793.872 430.89)">
      <g id="Group_6224-2" data-name="Group 6224" transform="translate(0.006)">
        <path id="Path_34639" data-name="Path 34639" d="M872.616,486.562a8.821,8.821,0,0,1-8.811-8.811V459.618a10.161,10.161,0,0,0-10.149-10.15l-51-.247a8.811,8.811,0,0,1-8.769-8.862l0-.708a8.832,8.832,0,0,1,8.811-8.762l50.993.247a28.517,28.517,0,0,1,28.446,28.482v18.132a8.821,8.821,0,0,1-8.811,8.811Z" transform="translate(-793.882 -430.89)" fill="url(#linear-gradient)"/>
      </g>
      <g id="Group_6225" data-name="Group 6225" transform="translate(0.081 0.043)">
        <path id="Path_34640" data-name="Path 34640" d="M835.7,486.587a8.821,8.821,0,0,1-8.811-8.811V459.644a10.161,10.161,0,0,0-10.15-10.15l-14.031-.2a8.813,8.813,0,0,1-8.708-9l.016-.709a8.859,8.859,0,0,1,8.807-8.619l14.023.2a28.526,28.526,0,0,1,28.375,28.481v18.132a8.821,8.821,0,0,1-8.811,8.811Z" transform="translate(-794.001 -430.959)" fill="url(#linear-gradient-2)"/>
      </g>
      <ellipse id="Ellipse_1654" data-name="Ellipse 1654" cx="9.556" cy="9.715" rx="9.556" ry="9.715" transform="translate(0 36.241)" fill="url(#linear-gradient-3)"/>
    </g>
    <g id="Group_6227" data-name="Group 6227" transform="translate(794.001 498.024)">
      <path id="Path_34641" data-name="Path 34641" d="M794.076,555.022v-11.1h1.881l3.67,6.365,3.671-6.365h1.88v11.1h-1.958v-6.63L800,554.017h-.74l-3.223-5.625v6.63Z" transform="translate(-794.076 -543.918)"/>
      <path id="Path_34642" data-name="Path 34642" d="M817.139,556.753a3.094,3.094,0,0,1-1.515-.343,2.342,2.342,0,0,1-.94-.918,2.56,2.56,0,0,1-.32-1.268,3.015,3.015,0,0,1,.177-1.057,2.18,2.18,0,0,1,.574-.845,3.184,3.184,0,0,1,1.068-.612,7.851,7.851,0,0,1,1.1-.3q.641-.13,1.45-.25t1.781-.266l-.756.416a1.464,1.464,0,0,0-.354-1.086,1.664,1.664,0,0,0-1.187-.347,2.372,2.372,0,0,0-.964.223,1.289,1.289,0,0,0-.7.794l-1.9-.6a3.217,3.217,0,0,1,1.188-1.681,3.9,3.9,0,0,1,2.375-.648,5.284,5.284,0,0,1,1.958.339,2.448,2.448,0,0,1,1.3,1.172,2.479,2.479,0,0,1,.293.925q.046.463.046,1.033v5.088h-1.835v-1.712l.262.355a3.966,3.966,0,0,1-1.314,1.215A3.792,3.792,0,0,1,817.139,556.753Zm.447-1.65a2.109,2.109,0,0,0,.975-.2,2.18,2.18,0,0,0,.632-.466,2.041,2.041,0,0,0,.32-.44,2.113,2.113,0,0,0,.189-.79c.018-.3.027-.551.027-.752l.617.154q-.933.154-1.511.258c-.385.069-.7.133-.933.189a5.506,5.506,0,0,0-.625.185,2.188,2.188,0,0,0-.5.266.954.954,0,0,0-.278.312.8.8,0,0,0-.088.378.827.827,0,0,0,.142.49.891.891,0,0,0,.4.313A1.637,1.637,0,0,0,817.586,555.1Z" transform="translate(-801.595 -545.417)"/>
      <path id="Path_34643" data-name="Path 34643" d="M828.921,548.587v-1.619h4.1v1.619Zm4.1,6.708a8.134,8.134,0,0,1-1.692.143,4.05,4.05,0,0,1-1.481-.293,1.978,1.978,0,0,1-.99-.883,2.552,2.552,0,0,1-.324-1.16q-.015-.59-.016-1.338v-7.109h2.1v6.986q0,.485.012.875a1.219,1.219,0,0,0,.158.621,1.056,1.056,0,0,0,.887.478,6.83,6.83,0,0,0,1.349-.061Z" transform="translate(-806.84 -544.191)"/>
      <path id="Path_34644" data-name="Path 34644" d="M838.558,556.64v-8.326h1.85v2.035l-.2-.262a3.067,3.067,0,0,1,.432-.786,2.267,2.267,0,0,1,.663-.587,2.7,2.7,0,0,1,.655-.289,3.463,3.463,0,0,1,.733-.131,3.883,3.883,0,0,1,.755.02v1.958a2.151,2.151,0,0,0-.806-.073,2.3,2.3,0,0,0-.829.212,1.854,1.854,0,0,0-1.01,1.114,2.633,2.633,0,0,0-.131.859v4.256Z" transform="translate(-810.563 -545.536)"/>
      <path id="Path_34645" data-name="Path 34645" d="M848.849,555.021V546.7h2.1v8.326Zm2.078-10.08a1.024,1.024,0,1,1-1.024-1.024A1.023,1.023,0,0,1,850.927,544.941Z" transform="translate(-814.377 -543.917)"/>
      <path id="Path_34646" data-name="Path 34646" d="M854.826,556.657l2.977-4.21-2.915-4.117h2.467l1.665,2.466,1.635-2.466h2.467l-2.915,4.117,2.991,4.21h-2.467l-1.712-2.56-1.726,2.56Z" transform="translate(-816.593 -545.553)"/>
      <path id="Path_34647" data-name="Path 34647" d="M870.372,555.022v-11.1h6.785v2.1h-4.688v2.4h3.763v2.1h-3.763v4.5Z" transform="translate(-822.355 -543.918)"/>
      <path id="Path_34648" data-name="Path 34648" d="M885.926,556.753a4.232,4.232,0,0,1-2.2-.563,3.9,3.9,0,0,1-1.476-1.554,5.155,5.155,0,0,1,.011-4.571,3.937,3.937,0,0,1,1.488-1.547,4.595,4.595,0,0,1,4.391.008,3.935,3.935,0,0,1,1.485,1.554,5.143,5.143,0,0,1,0,4.564,3.932,3.932,0,0,1-1.488,1.55A4.268,4.268,0,0,1,885.926,556.753Zm0-1.959a1.742,1.742,0,0,0,1.507-.682,2.9,2.9,0,0,0,.5-1.754,2.849,2.849,0,0,0-.506-1.773,1.766,1.766,0,0,0-1.5-.664,1.913,1.913,0,0,0-1.125.309,1.811,1.811,0,0,0-.652.856,3.519,3.519,0,0,0-.211,1.272,2.853,2.853,0,0,0,.5,1.777A1.754,1.754,0,0,0,885.926,554.794Z" transform="translate(-826.559 -545.417)"/>
      <path id="Path_34649" data-name="Path 34649" d="M897.765,556.64v-8.326h1.85v2.035l-.2-.262a3.073,3.073,0,0,1,.432-.786,2.268,2.268,0,0,1,.663-.587,2.694,2.694,0,0,1,.655-.289,3.465,3.465,0,0,1,.733-.131,3.883,3.883,0,0,1,.755.02v1.958a2.151,2.151,0,0,0-.806-.073,2.3,2.3,0,0,0-.829.212,1.853,1.853,0,0,0-1.01,1.114,2.63,2.63,0,0,0-.131.859v4.256Z" transform="translate(-832.508 -545.536)"/>
      <path id="Path_34650" data-name="Path 34650" d="M910.963,556.753a4.109,4.109,0,0,1-2.221-.578,3.822,3.822,0,0,1-1.419-1.573,4.985,4.985,0,0,1-.493-2.244,4.853,4.853,0,0,1,.513-2.259,3.885,3.885,0,0,1,1.446-1.565,4.144,4.144,0,0,1,2.2-.57,4.022,4.022,0,0,1,2.471.744,3.312,3.312,0,0,1,1.276,2.032l-2.1.556a1.91,1.91,0,0,0-.643-1.011,1.63,1.63,0,0,0-1.037-.362,1.753,1.753,0,0,0-1.087.32,1.856,1.856,0,0,0-.625.871,3.637,3.637,0,0,0-.2,1.245,2.965,2.965,0,0,0,.481,1.762,1.643,1.643,0,0,0,1.431.675,1.593,1.593,0,0,0,1.079-.323,1.958,1.958,0,0,0,.554-.925l2.144.447a3.566,3.566,0,0,1-1.341,2.044A4.037,4.037,0,0,1,910.963,556.753Z" transform="translate(-835.867 -545.417)"/>
      <path id="Path_34651" data-name="Path 34651" d="M925.521,556.753a4.5,4.5,0,0,1-2.255-.551,3.97,3.97,0,0,1-1.527-1.519,4.395,4.395,0,0,1-.551-2.217,4.964,4.964,0,0,1,.54-2.375,3.93,3.93,0,0,1,1.488-1.569,4.215,4.215,0,0,1,2.182-.559,3.9,3.9,0,0,1,2.228.617,3.623,3.623,0,0,1,1.357,1.734,5.778,5.778,0,0,1,.309,2.629h-2.074v-.77a3.19,3.19,0,0,0-.4-1.831,1.523,1.523,0,0,0-1.322-.559,1.869,1.869,0,0,0-1.577.651,3.1,3.1,0,0,0-.5,1.924,2.831,2.831,0,0,0,.5,1.8,1.78,1.78,0,0,0,1.484.636,1.979,1.979,0,0,0,1.056-.27,1.717,1.717,0,0,0,.671-.779l2.1.6a3.694,3.694,0,0,1-1.485,1.773A4.113,4.113,0,0,1,925.521,556.753Zm-2.76-3.81v-1.557h5.52v1.557Z" transform="translate(-841.189 -545.417)"/>
    </g>
  </g>
</svg>
