<svg id="Group_4965" data-name="Group 4965" xmlns="http://www.w3.org/2000/svg" width="20" height="20" viewBox="0 0 20 20">
  <g id="Group_4716" data-name="Group 4716">
    <g id="Group_4714" data-name="Group 4714">
      <path id="Path_33866" data-name="Path 33866" d="M-186.741,677.864a10.011,10.011,0,0,0-10,10,9.921,9.921,0,0,0,1.6,5.42l-1.519,3.346a.872.872,0,0,0,.131.928.873.873,0,0,0,.664.307.871.871,0,0,0,.231-.031l4.186-1.148a10,10,0,0,0,4.71,1.18,10.011,10.011,0,0,0,10-10A10.011,10.011,0,0,0-186.741,677.864Zm0,18.253a8.246,8.246,0,0,1-4.156-1.124.872.872,0,0,0-.44-.119.883.883,0,0,0-.231.031l-2.734.75.952-2.1a.874.874,0,0,0-.087-.872,8.191,8.191,0,0,1-1.557-4.822,8.263,8.263,0,0,1,8.253-8.253,8.263,8.263,0,0,1,8.254,8.253A8.263,8.263,0,0,1-186.741,696.117Z" transform="translate(196.741 -677.864)" fill="#45c022"/>
    </g>
    <g id="Group_4715" data-name="Group 4715" transform="translate(6.119 6.334)">
      <path id="Path_33867" data-name="Path 33867" d="M-171.983,701.51a1.376,1.376,0,0,0-1.172-.264c-.3.125-.5.6-.7.845a.292.292,0,0,1-.378.082,5.311,5.311,0,0,1-2.65-2.27.325.325,0,0,1,.041-.444,1.79,1.79,0,0,0,.482-.782,1.71,1.71,0,0,0-.215-.925,2.193,2.193,0,0,0-.683-1.029.935.935,0,0,0-1.016.151,2.062,2.062,0,0,0-.715,1.635,2.318,2.318,0,0,0,.064.518,4.289,4.289,0,0,0,.5,1.147,9.037,9.037,0,0,0,.519.79,8.016,8.016,0,0,0,2.253,2.092,6.813,6.813,0,0,0,1.4.668,3.122,3.122,0,0,0,1.636.258,1.98,1.98,0,0,0,1.483-1.1.958.958,0,0,0,.069-.563C-171.144,701.928-171.669,701.7-171.983,701.51Z" transform="translate(178.987 -696.631)" fill="#45c022"/>
    </g>
  </g>
</svg>
